<?xml version="1.0" encoding="UTF-8" standalone="no"?>
<!-- Created with Inkscape (http://www.inkscape.org/) -->

<svg
   width="866.02899"
   height="1000"
   viewBox="0 0 866.02899 1000"
   version="1.1"
   id="svg1"
   xml:space="preserve"
   inkscape:version="1.4.3 (0d15f75042, 2025-12-25)"
   sodipodi:docname="logo.svg"
   inkscape:export-filename="logo.png"
   inkscape:export-xdpi="96"
   inkscape:export-ydpi="96"
   xmlns:inkscape="http://www.inkscape.org/namespaces/inkscape"
   xmlns:sodipodi="http://sodipodi.sourceforge.net/DTD/sodipodi-0.dtd"
   xmlns="http://www.w3.org/2000/svg"
   xmlns:svg="http://www.w3.org/2000/svg"><sodipodi:namedview
     id="namedview1"
     pagecolor="#505050"
     bordercolor="#eeeeee"
     borderopacity="1"
     inkscape:showpageshadow="0"
     inkscape:pageopacity="0"
     inkscape:pagecheckerboard="0"
     inkscape:deskcolor="#505050"
     inkscape:document-units="px"
     showguides="true"
     inkscape:zoom="0.35856833"
     inkscape:cx="446.219"
     inkscape:cy="528.49062"
     inkscape:window-width="1920"
     inkscape:window-height="1011"
     inkscape:window-x="0"
     inkscape:window-y="0"
     inkscape:window-maximized="1"
     inkscape:current-layer="layer3"><sodipodi:guide
       position="866.02899,750"
       orientation="0.49999845,-0.8660263"
       id="guide1"
       inkscape:locked="false"
       inkscape:label=""
       inkscape:color="rgb(0,134,229)" /><sodipodi:guide
       position="-2.7269562e-07,750"
       orientation="0.49999845,0.8660263"
       id="guide2"
       inkscape:locked="false" /><sodipodi:guide
       position="866.02899,750"
       orientation="0,-1"
       id="guide4"
       inkscape:locked="false" /><sodipodi:guide
       position="866.02899,249.99999"
       orientation="0,-1"
       id="guide5"
       inkscape:locked="false" /><sodipodi:guide
       position="433.01449,-7.099228e-06"
       orientation="1,0"
       id="guide11"
       inkscape:locked="false" /><sodipodi:guide
       position="581.25,500"
       orientation="0,1"
       id="guide14"
       inkscape:locked="false"
       inkscape:label=""
       inkscape:color="rgb(0,134,229)" /></sodipodi:namedview><defs
     id="defs1"><clipPath
       clipPathUnits="userSpaceOnUse"
       id="clipPath11"><path
         sodipodi:type="star"
         style="display:inline;fill:#d80000;stroke-width:2.5"
         id="path11"
         inkscape:flatsided="true"
         sodipodi:sides="6"
         sodipodi:cx="405.25177"
         sodipodi:cy="288.9021"
         sodipodi:r1="210.85258"
         sodipodi:r2="182.6037"
         sodipodi:arg1="0.52359878"
         sodipodi:arg2="1.0471976"
         inkscape:rounded="0"
         inkscape:randomized="0"
         d="M 587.85546,394.32839 405.25177,499.75468 222.64807,394.32839 222.64808,183.47581 405.25177,78.049515 587.85547,183.47581 Z"
         transform="matrix(0.98941672,0,0,0.98941672,43.325623,134.15766)" /></clipPath><filter
       style="color-interpolation-filters:sRGB"
       inkscape:label="Blur"
       id="filter6"
       x="-1.1246566"
       y="-1.0649259"
       width="3.2493131"
       height="3.1298518"><feGaussianBlur
         stdDeviation="10 10"
         result="fbSourceGraphic"
         id="feGaussianBlur6" /><feColorMatrix
         result="fbSourceGraphicAlpha"
         in="fbSourceGraphic"
         values="0 0 0 -1 0 0 0 0 -1 0 0 0 0 -1 0 0 0 0 1 0"
         id="feColorMatrix12" /><feGaussianBlur
         id="feGaussianBlur12"
         stdDeviation="21.4196 19.7509"
         result="blur"
         in="fbSourceGraphic" /></filter><filter
       style="color-interpolation-filters:sRGB"
       inkscape:label="Blur"
       id="filter6-9"
       x="-1.2253901"
       y="-1.212214"
       width="3.4507804"
       height="3.424428"><feGaussianBlur
         stdDeviation="10 10"
         result="fbSourceGraphic"
         id="feGaussianBlur6-1" /><feColorMatrix
         result="fbSourceGraphicAlpha"
         in="fbSourceGraphic"
         values="0 0 0 -1 0 0 0 0 -1 0 0 0 0 -1 0 0 0 0 1 0"
         id="feColorMatrix10" /><feGaussianBlur
         id="feGaussianBlur10"
         stdDeviation="24.2338 23.8657"
         result="blur"
         in="fbSourceGraphic" /></filter><filter
       style="color-interpolation-filters:sRGB"
       inkscape:label="Blur"
       id="filter6-9-3"
       x="-1.5709741"
       y="-1.5253894"
       width="4.1419482"
       height="4.0507789"><feGaussianBlur
         stdDeviation="10 10"
         result="fbSourceGraphic"
         id="feGaussianBlur6-1-6" /><feColorMatrix
         result="fbSourceGraphicAlpha"
         in="fbSourceGraphic"
         values="0 0 0 -1 0 0 0 0 -1 0 0 0 0 -1 0 0 0 0 1 0"
         id="feColorMatrix6" /><feGaussianBlur
         id="feGaussianBlur7"
         stdDeviation="33.8884 32.6149"
         result="blur"
         in="fbSourceGraphic" /></filter><filter
       style="color-interpolation-filters:sRGB"
       inkscape:label="Blur"
       id="filter6-1"
       x="-1.4050332"
       y="-1.4819382"
       width="3.8100665"
       height="3.9638762"><feGaussianBlur
         stdDeviation="10 10"
         result="fbSourceGraphic"
         id="feGaussianBlur6-8" /><feColorMatrix
         result="fbSourceGraphicAlpha"
         in="fbSourceGraphic"
         values="0 0 0 -1 0 0 0 0 -1 0 0 0 0 -1 0 0 0 0 1 0"
         id="feColorMatrix9" /><feGaussianBlur
         id="feGaussianBlur9"
         stdDeviation="29.2525 31.401"
         result="blur"
         in="fbSourceGraphic" /></filter><filter
       style="color-interpolation-filters:sRGB"
       inkscape:label="Blur"
       id="filter6-9-2"
       x="-0.35794744"
       y="-0.35794744"
       width="1.7158949"
       height="1.7158949"><feGaussianBlur
         stdDeviation="10 10"
         result="blur"
         id="feGaussianBlur6-1-3" /></filter><filter
       style="color-interpolation-filters:sRGB"
       inkscape:label="Blur"
       id="filter6-1-2"
       x="-0.92557693"
       y="-0.85183972"
       width="2.8511539"
       height="2.7036796"><feGaussianBlur
         stdDeviation="10 10"
         result="fbSourceGraphic"
         id="feGaussianBlur6-8-8" /><feColorMatrix
         result="fbSourceGraphicAlpha"
         in="fbSourceGraphic"
         values="0 0 0 -1 0 0 0 0 -1 0 0 0 0 -1 0 0 0 0 1 0"
         id="feColorMatrix11" /><feGaussianBlur
         id="feGaussianBlur11"
         stdDeviation="15.8579 13.7979"
         result="blur"
         in="fbSourceGraphic" /></filter><filter
       style="color-interpolation-filters:sRGB"
       inkscape:label="Blur"
       id="filter6-12"
       x="-2.3595214"
       y="-2.5889587"
       width="5.7190428"
       height="6.1779175"><feGaussianBlur
         stdDeviation="10 10"
         result="fbSourceGraphic"
         id="feGaussianBlur6-9" /><feColorMatrix
         result="fbSourceGraphicAlpha"
         in="fbSourceGraphic"
         values="0 0 0 -1 0 0 0 0 -1 0 0 0 0 -1 0 0 0 0 1 0"
         id="feColorMatrix8" /><feGaussianBlur
         id="feGaussianBlur8"
         stdDeviation="55.9181 62.3279"
         result="blur"
         in="fbSourceGraphic" /></filter><linearGradient
       x1="0"
       y1="0"
       x2="1"
       y2="0"
       gradientUnits="userSpaceOnUse"
       gradientTransform="matrix(-1.014e-4,2320.86,2320.86,1.014e-4,1763.52,-458.22)"
       spreadMethod="pad"
       id="linearGradient403"><stop
         style="stop-opacity:1;stop-color:#fcfbf4"
         offset="0"
         id="stop400" /><stop
         style="stop-opacity:1;stop-color:#fcfbf4"
         offset="0.0748539"
         id="stop401" /><stop
         style="stop-opacity:1;stop-color:#f6f6d8"
         offset="0.660781"
         id="stop402" /><stop
         style="stop-opacity:1;stop-color:#f5f5cb"
         offset="1"
         id="stop403" /></linearGradient><clipPath
       clipPathUnits="userSpaceOnUse"
       id="clipPath403"><path
         d="m 2637.91,1220.74 c -4.15,0 -3.57,5.65 0.54,5.65 4.18,0 3.62,-5.65 -0.54,-5.65"
         transform="translate(0,-2.5000001e-5)"
         id="path403" /></clipPath><clipPath
       clipPathUnits="userSpaceOnUse"
       id="clipPath407"><path
         d="m 2817.18,1093.41 c -0.88,0 -1.56,0.23 -2.06,0.62 1.63,0.14 3.22,0.29 4.76,0.45 -0.61,-0.64 -1.52,-1.07 -2.7,-1.07"
         transform="translate(0,-2.5000001e-5)"
         id="path407" /></clipPath><clipPath
       clipPathUnits="userSpaceOnUse"
       id="clipPath439"><path
         d="m 3209.45,1079.15 c -4.71,0 -4.08,6.43 0.61,6.43 4.69,0 4.05,-6.43 -0.61,-6.43"
         transform="translate(0,-2.5000001e-5)"
         id="path439" /></clipPath><clipPath
       clipPathUnits="userSpaceOnUse"
       id="clipPath467"><path
         d="m 3437.64,1067.68 c -0.38,0 -0.86,0.08 -1.44,0.25 v 0 c -1.65,0.48 -5.97,1.67 -5.81,3.66 0.23,2.42 1.17,3.32 2.35,3.32 1.67,0 3.82,-1.81 5.09,-3.61 1.27,-1.81 1.66,-3.62 -0.19,-3.62 m -0.72,0.04 c 0,0 -0.23,0.06 -0.44,0.12 -0.22,0.06 -0.43,0.12 -0.42,0.12 0,0 0.04,-0.01 0.14,-0.03 v 0 c 0.55,-0.16 0.73,-0.21 0.72,-0.21"
         transform="translate(0,-2.5000001e-5)"
         id="path467" /></clipPath><clipPath
       clipPathUnits="userSpaceOnUse"
       id="clipPath471"><path
         d="m 3441.95,1199.83 c -4.88,0 -4.22,6.67 0.61,6.67 4.91,0 4.24,-6.67 -0.61,-6.67"
         transform="translate(0,-2.5000001e-5)"
         id="path471" /></clipPath><clipPath
       clipPathUnits="userSpaceOnUse"
       id="clipPath475"><path
         d="m 2551.05,1348.64 c -2.98,0 -2.55,4.02 0.36,4.02 2.95,0 2.52,-4.02 -0.36,-4.02"
         transform="translate(0,-2.5000001e-5)"
         id="path475" /></clipPath><clipPath
       clipPathUnits="userSpaceOnUse"
       id="clipPath479"><path
         d="m 3427.76,1336.52 c -4.57,0 -3.93,6.27 0.58,6.27 4.6,0 3.95,-6.27 -0.58,-6.27"
         transform="translate(0,-2.5000001e-5)"
         id="path479" /></clipPath><clipPath
       clipPathUnits="userSpaceOnUse"
       id="clipPath483"><path
         d="m 3221.94,1355.98 c -3.66,0 -3.16,5.02 0.45,5.02 3.68,0 3.17,-5.02 -0.45,-5.02"
         transform="translate(0,-2.5000001e-5)"
         id="path483" /></clipPath><linearGradient
       x1="0"
       y1="0"
       x2="1"
       y2="0"
       gradientUnits="userSpaceOnUse"
       gradientTransform="matrix(1312.92,0,0,-1312.92,2108.83,1150.47)"
       spreadMethod="pad"
       id="linearGradient750"><stop
         style="stop-opacity:1;stop-color:#f6f7d2"
         offset="0"
         id="stop748" /><stop
         style="stop-opacity:1;stop-color:#eaf0d2"
         offset="0.807685"
         id="stop749" /><stop
         style="stop-opacity:1;stop-color:#eaf0d2"
         offset="1"
         id="stop750" /></linearGradient><clipPath
       clipPathUnits="userSpaceOnUse"
       id="clipPath750"><path
         d="m 2457.38,1191.27 c -1.33,0.15 -2.71,0.3 -4.14,0.45 -1.73,1.61 -1.25,4.84 1.89,4.84 3.43,0 4.42,-3.95 2.25,-5.29"
         transform="translate(0,-2.5000001e-5)"
         id="path750" /></clipPath><clipPath
       clipPathUnits="userSpaceOnUse"
       id="clipPath753"><path
         d="m 2638.45,1134.4 c -4.11,0 -4.69,5.64 -0.54,5.64 4.16,0 4.72,-5.64 0.54,-5.64"
         transform="translate(0,-2.5000001e-5)"
         id="path753" /></clipPath><clipPath
       clipPathUnits="userSpaceOnUse"
       id="clipPath754"><path
         d="m 2577.36,1113.52 c -7.17,0 -6.19,9.83 0.95,9.83 7.2,0 6.21,-9.83 -0.95,-9.83"
         transform="matrix(0.03311236,0,0,-0.03968254,-84.863677,44.924602)"
         id="path754" /></clipPath><clipPath
       clipPathUnits="userSpaceOnUse"
       id="clipPath755"><path
         d="m 2455.13,1164.22 c -4.18,0 -3.64,5.72 0.53,5.72 4.18,0 3.6,-5.72 -0.53,-5.72"
         transform="matrix(0.03968222,0,0,-0.04716981,-96.939706,55.476414)"
         id="path755" /></clipPath><clipPath
       clipPathUnits="userSpaceOnUse"
       id="clipPath756"><path
         d="m 2815.12,1094.03 c -2.02,1.55 -0.91,5.51 2.62,5.51 3.31,0 3.85,-3.31 2.14,-5.06 -1.54,-0.16 -3.13,-0.31 -4.76,-0.45"
         transform="matrix(0.04950446,0,0,-0.04950495,-139.00358,54.856435)"
         id="path756" /></clipPath><clipPath
       clipPathUnits="userSpaceOnUse"
       id="clipPath757"><path
         d="m 3291.41,1099.19 67.1,39.71 c 105.76,-12.91 59.96,-29.84 -0.65,-35.7 -20.72,-1.98 -43.07,-3.21 -66.45,-4.01"
         transform="matrix(0.0053135,0,0,-0.01845018,-17.443677,21.164206)"
         id="path757" /></clipPath><clipPath
       clipPathUnits="userSpaceOnUse"
       id="clipPath781"><path
         d="m 3288.02,1099.08 69.32,39.96 c 0.39,-0.04 0.79,-0.09 1.17,-0.14 l -67.1,-39.71 c -1.13,-0.04 -2.25,-0.08 -3.39,-0.11"
         transform="matrix(0.01216542,0,0,-0.01845018,-39.937858,21.164206)"
         id="path781" /></clipPath><clipPath
       clipPathUnits="userSpaceOnUse"
       id="clipPath431"><path
         d="m 3410.58,693.551 c -0.81,0 -3.26,1.39 -4.75,2.789 -1.49,1.398 -2.03,2.801 0.97,2.801 0.54,0 1.19,-0.051 1.98,-0.153 1.94,-0.316 7.66,-4.258 2,-4.957 0.16,-0.34 0.07,-0.48 -0.2,-0.48"
         transform="translate(0,-2.5000001e-5)"
         id="path431" /></clipPath><clipPath
       clipPathUnits="userSpaceOnUse"
       id="clipPath459"><path
         d="m 3330.28,636.641 c -2.49,0 -2.18,3.418 0.32,3.418 2.51,0 2.18,-3.418 -0.32,-3.418"
         transform="translate(0,-2.5000001e-5)"
         id="path459" /></clipPath><clipPath
       clipPathUnits="userSpaceOnUse"
       id="clipPath511"><path
         d="m 3356.84,758.238 c -3.64,0 -3.13,4.961 0.46,4.961 3.67,0 3.14,-4.961 -0.46,-4.961"
         transform="translate(0,-2.5000001e-5)"
         id="path511" /></clipPath><clipPath
       clipPathUnits="userSpaceOnUse"
       id="clipPath431-6"><path
         d="m 3410.58,693.551 c -0.81,0 -3.26,1.39 -4.75,2.789 -1.49,1.398 -2.03,2.801 0.97,2.801 0.54,0 1.19,-0.051 1.98,-0.153 1.94,-0.316 7.66,-4.258 2,-4.957 0.16,-0.34 0.07,-0.48 -0.2,-0.48"
         transform="translate(0,-2.5000001e-5)"
         id="path431-9" /></clipPath><clipPath
       clipPathUnits="userSpaceOnUse"
       id="clipPath459-3"><path
         d="m 3330.28,636.641 c -2.49,0 -2.18,3.418 0.32,3.418 2.51,0 2.18,-3.418 -0.32,-3.418"
         transform="translate(0,-2.5000001e-5)"
         id="path459-7" /></clipPath><clipPath
       clipPathUnits="userSpaceOnUse"
       id="clipPath511-4"><path
         d="m 3356.84,758.238 c -3.64,0 -3.13,4.961 0.46,4.961 3.67,0 3.14,-4.961 -0.46,-4.961"
         transform="translate(0,-2.5000001e-5)"
         id="path511-5" /></clipPath><clipPath
       clipPathUnits="userSpaceOnUse"
       id="clipPath7"><path
         sodipodi:type="star"
         style="display:inline;fill:#43b8ff;fill-opacity:1;stroke:none;stroke-width:2.10852;stroke-dasharray:none"
         id="path7"
         inkscape:flatsided="true"
         sodipodi:sides="6"
         sodipodi:cx="405.25177"
         sodipodi:cy="288.9021"
         sodipodi:r1="210.85258"
         sodipodi:r2="182.6037"
         sodipodi:arg1="0.52359878"
         sodipodi:arg2="1.0471976"
         inkscape:rounded="0"
         inkscape:randomized="0"
         d="M 587.85546,394.32839 405.25177,499.75468 222.64807,394.32839 222.64808,183.47581 405.25177,78.049515 587.85547,183.47581 Z"
         transform="matrix(2.3713348,0,0,2.371325,-527.97313,-185.08077)"
         inkscape:label="1" /></clipPath><clipPath
       clipPathUnits="userSpaceOnUse"
       id="clipPath8"><path
         sodipodi:type="star"
         style="display:inline;fill:#43b8ff;fill-opacity:1;stroke:none;stroke-width:2.10852;stroke-dasharray:none"
         id="path8"
         inkscape:flatsided="true"
         sodipodi:sides="6"
         sodipodi:cx="405.25177"
         sodipodi:cy="288.9021"
         sodipodi:r1="210.85258"
         sodipodi:r2="182.6037"
         sodipodi:arg1="0.52359878"
         sodipodi:arg2="1.0471976"
         inkscape:rounded="0"
         inkscape:randomized="0"
         d="M 587.85546,394.32839 405.25177,499.75468 222.64807,394.32839 222.64808,183.47581 405.25177,78.049515 587.85547,183.47581 Z"
         transform="matrix(2.3713348,0,0,2.371325,-527.97313,-185.08077)"
         inkscape:label="1" /></clipPath><clipPath
       clipPathUnits="userSpaceOnUse"
       id="clipPath9"><path
         sodipodi:type="star"
         style="display:inline;fill:#43b8ff;fill-opacity:1;stroke:none;stroke-width:2.10852;stroke-dasharray:none"
         id="path9"
         inkscape:flatsided="true"
         sodipodi:sides="6"
         sodipodi:cx="405.25177"
         sodipodi:cy="288.9021"
         sodipodi:r1="210.85258"
         sodipodi:r2="182.6037"
         sodipodi:arg1="0.52359878"
         sodipodi:arg2="1.0471976"
         inkscape:rounded="0"
         inkscape:randomized="0"
         d="M 587.85546,394.32839 405.25177,499.75468 222.64807,394.32839 222.64808,183.47581 405.25177,78.049515 587.85547,183.47581 Z"
         transform="matrix(2.3713348,0,0,2.371325,-527.97313,-185.08077)"
         inkscape:label="1" /></clipPath></defs><g
     inkscape:groupmode="layer"
     id="layer2"
     inkscape:label="Background"
     style="display:inline"
     sodipodi:insensitive="true"><path
       sodipodi:type="star"
       style="display:inline;fill:#0035ab;fill-opacity:1;stroke:none;stroke-width:2.10852;stroke-dasharray:none"
       id="path2-5-4"
       inkscape:flatsided="true"
       sodipodi:sides="6"
       sodipodi:cx="405.25177"
       sodipodi:cy="288.9021"
       sodipodi:r1="210.85258"
       sodipodi:r2="182.6037"
       sodipodi:arg1="0.52359878"
       sodipodi:arg2="1.0471976"
       inkscape:rounded="0"
       inkscape:randomized="0"
       d="M 587.85546,394.32839 405.25177,499.75468 222.64807,394.32839 222.64808,183.47581 405.25177,78.049515 587.85547,183.47581 Z"
       transform="matrix(2.3713348,0,0,2.371325,-527.97313,-185.08077)"
       inkscape:label="1" /></g><g
     inkscape:groupmode="layer"
     id="layer3"
     inkscape:label="Graphics"
     transform="translate(0,-16.152241)"
     sodipodi:insensitive="true"><path
       class="fil0"
       d="m 430.12441,266.15224 h 31.7719 c 22.04405,1.67692 43.97703,5.71961 64.8803,13.00508 1.76201,0.62124 3.54912,1.28502 5.45581,1.31907 0.0766,0.38295 0.16168,0.76633 0.2553,1.14885 -2.53643,-1.47223 -5.52389,-1.59989 -8.28966,-2.35728 -18.03538,-4.37503 -36.59795,-6.40042 -55.14351,-6.26427 -41.79803,-1.4382 -84.0556,7.08974 -121.52158,25.82294 -34.58065,17.07332 -65.08455,42.39374 -88.05576,73.38271 -19.81398,26.61395 -33.96792,57.4242 -41.0751,89.83436 -8.84282,40.38537 -6.76593,83.05141 5.60898,122.47514 11.98387,38.27444 33.7892,73.43334 62.82894,101.1119 23.79713,22.86909 52.47094,40.59769 83.5114,51.80715 35.7461,12.85997 74.54007,17.13288 112.24433,12.56212 20.61393,-2.58748 40.83598,-8.05136 60.03722,-15.95807 52.48796,-21.57557 96.9841,-60.53123 127.9986,-107.79315 -6.82592,14.32414 -15.32024,27.81387 -24.86981,40.47855 -36.75071,48.88776 -91.98784,83.47691 -152.10165,94.88168 -37.54257,7.25142 -76.72759,5.8047 -113.6319,-4.21291 -32.77609,-8.9028 -63.68847,-24.56302 -90.21774,-45.76414 -25.48212,-20.25651 -46.93854,-45.54289 -62.81193,-73.9614 -15.11558,-27.0569 -25.15022,-56.96509 -29.26951,-87.69025 -4.85117,-35.09933 -2.10242,-71.22073 7.96627,-105.18865 10.83458,-36.69113 30.34221,-70.74415 56.36044,-98.77971 23.10781,-24.92895 51.30506,-45.14291 82.41316,-58.87134 26.99734,-12.06856 56.19026,-18.93702 85.6555,-20.98838 z"
       id="path10"
       inkscape:connector-curvature="0"
       style="fill:#ffffff;fill-rule:nonzero;stroke-width:3.54332" /><path
       class="fil0"
       d="m 290.04876,351.9188 c 25.57572,-26.41865 57.76504,-46.22369 92.68609,-57.65441 l 0.0851,0.40849 c -42.39373,16.62228 -80.00439,45.75563 -105.97157,83.24714 -18.04389,26.10377 -30.11244,56.17324 -35.90012,87.34091 -3.31936,16.52867 -4.71501,33.41476 -4.89415,50.26682 -0.36551,28.26533 6.84337,56.20727 18.129,81.98723 15.77936,35.68738 39.96836,67.73118 70.45482,92.14144 27.27815,21.91597 59.85,37.27876 94.2264,43.92555 31.92551,6.40893 65.03349,5.33667 96.91601,-0.79994 1.69351,-0.35743 3.37892,-0.90207 5.14092,-0.79145 -39.10884,11.36222 -81.19621,13.2604 -120.83226,3.48105 -64.27609,-15.23514 -120.4408,-59.94361 -150.96173,-118.36392 -9.77891,-18.54556 -16.97927,-38.47868 -21.07346,-59.05007 -4.13632,-20.39266 -4.75755,-41.37252 -3.26787,-62.08006 4.14482,-53.65383 27.62665,-105.5801 65.26283,-144.05878 z"
       id="path14"
       inkscape:connector-curvature="0"
       style="fill:#ffffff;fill-rule:nonzero;stroke-width:3.54332" /><path
       class="fil0"
       d="m 484.23821,296.90294 c 7.85563,0.69782 15.69468,1.65945 23.48224,2.88533 13.71993,48.64055 27.41432,97.29046 41.14275,145.93143 1.02972,3.42998 1.75308,6.97059 3.16575,10.28101 -0.23828,-35.19294 -0.0336,-70.39482 -0.10172,-105.59713 0.0935,-12.37491 -0.18722,-24.76726 0.13574,-37.13366 8.20498,3.73633 16.17125,8.0003 23.89073,12.65573 -0.0336,120.46634 -0.0937,240.93225 0.0259,361.39859 -7.96669,4.13632 -15.8819,8.51134 -24.10391,12.0945 0.0596,-53.0411 0.13616,-106.09964 -0.0421,-159.13224 C 537.5771,487.68751 522.7849,435.217 508.43523,382.62694 c -0.45103,21.88192 -0.0766,43.78087 -0.19573,65.67131 -0.034,88.20936 0.0681,176.41831 -0.0596,264.61874 -8.00032,0.82589 -15.96701,1.95773 -23.98434,2.63854 0.008,-139.55654 -0.0681,-279.10457 0.0425,-418.65259 z"
       id="path26"
       inkscape:connector-curvature="0"
       style="fill:#ffffff;fill-rule:nonzero;stroke-width:3.54332" /><path
       class="fil0"
       d="m 408.56587,305.58405 c 11.23455,-3.28488 24.4609,-1.71904 33.32966,6.39192 3.91506,3.62571 7.10675,8.07689 9.04748,13.07315 12.66425,28.94613 16.31549,61.48436 11.95791,92.68566 -3.45551,24.25709 -12.14514,48.00271 -26.73352,67.80819 17.59244,16.49463 29.35504,38.44463 36.12991,61.41628 7.94925,27.12456 9.20023,56.18173 3.71082,83.91093 -3.80444,18.78384 -10.8431,37.06558 -21.73769,52.90495 -5.57451,7.84712 -11.55794,15.96657 -20.19694,20.65646 -6.90209,3.87252 -15.32832,5.02989 -22.9712,2.85981 -10.52823,-2.70662 -20.7586,-6.60465 -30.56347,-11.27711 0.12764,-126.80718 -0.051,-253.61437 0.0935,-380.42113 9.29426,-3.37041 18.55448,-6.86804 27.93343,-10.00911 z m -4.00015,24.6311 v 0 c -0.008,48.67544 0.034,97.35854 -0.0256,146.03356 3.88101,0.0935 7.76245,0.008 11.64304,0.0515 16.6393,-18.94595 24.69068,-44.0451 26.86117,-68.82982 2.38323,-25.77146 -1.9403,-52.27477 -13.354,-75.56128 -1.96583,-4.46864 -7.12377,-7.01315 -11.8643,-5.77876 -4.48523,1.14035 -8.85984,2.68067 -13.26038,4.08483 z m -0.0596,167.35423 v 0 c 0.1617,61.46692 -0.017,122.93427 0.0937,184.3931 4.1793,1.30204 8.17095,3.25935 12.49448,4.08483 4.26397,0.78334 7.65139,-2.50196 10.56226,-5.08945 11.0133,-11.60049 18.73278,-26.01824 23.71202,-41.14275 7.65991,-23.54139 8.73218,-49.03244 3.94058,-73.27207 -4.9452,-24.46091 -16.20528,-48.35164 -34.99764,-65.20326 -1.90667,-1.59181 -3.64314,-3.64274 -6.19617,-4.1878 l 0.1617,0.911 c -2.89386,-1.4046 -6.57913,-0.5021 -9.77084,-0.4936 z"
       id="path38"
       inkscape:connector-curvature="0"
       style="fill:#ffffff;fill-rule:nonzero;stroke-width:3.54332" /><path
       class="fil0"
       d="m 314.89304,364.89792 c 14.72411,-16.33251 32.1123,-30.2737 51.16846,-41.21892 -0.22977,11.1835 -0.47656,22.37551 -0.36593,33.55902 0,110.04873 -0.0171,220.09705 0.008,330.14579 -7.78756,-3.43849 -15.49853,-7.03867 -23.15886,-10.73247 0.13616,-60.71803 -0.051,-121.44499 0.0937,-182.16345 -19.88164,-0.15318 -39.77221,-0.18721 -59.65428,0.0171 -1.27651,23.35417 1.64288,46.90449 8.79218,69.18683 -7.13228,1.94028 -14.21351,4.08525 -21.37132,5.93193 -8.75813,-27.55899 -11.79666,-56.91361 -8.78366,-85.67293 4.41714,-44.03619 23.38862,-86.42141 53.27129,-119.05325 z m 14.49434,17.03076 v 0 c -22.57167,25.6953 -38.15572,57.65441 -43.79832,91.4266 18.9966,-0.0686 37.99361,-0.008 56.9902,-0.0256 -0.0256,-34.86148 0.11108,-69.72338 -0.0681,-104.58485 -4.89372,3.82995 -8.92791,8.63048 -13.12381,13.18378 z"
       id="path40"
       inkscape:connector-curvature="0"
       style="fill:#ffffff;fill-rule:nonzero;stroke-width:3.54332" /><path
       class="fil0"
       d="m 587.56314,332.38564 c 2.33177,0.82548 4.12782,2.57047 6.1281,3.94911 30.84388,22.28232 55.44945,53.12662 70.1225,88.24339 1.82158,4.68096 3.98356,9.26831 5.14944,14.16245 -6.82591,2.71514 -13.37951,6.10214 -20.23948,8.7492 -4.26397,-12.35788 -9.35384,-24.57153 -16.384,-35.61887 -0.35743,75.97019 -0.034,151.96591 -0.16127,227.94419 0.16127,1.13226 -0.86845,1.81307 -1.5067,2.55345 -6.12767,6.0515 -12.17961,12.17108 -18.29026,18.23919 -1.36203,1.31948 -2.56195,2.83428 -4.21333,3.81293 0.0855,-93.58772 -0.008,-187.17588 0.043,-280.76403 -0.0851,-1.67691 0.26381,-3.42998 -0.28126,-5.03838 -6.24682,-6.92804 -13.20889,-13.16677 -20.37565,-19.11615 0.0174,-9.03897 -0.008,-18.07751 0.008,-27.11648 z"
       id="path42"
       inkscape:connector-curvature="0"
       style="fill:#ffffff;fill-rule:nonzero;stroke-width:3.54332" /></g><g
     inkscape:groupmode="layer"
     id="layer1"
     inkscape:label="Guides | 10px"
     sodipodi:insensitive="true"
     style="display:none"><path
       sodipodi:type="star"
       style="display:inline;fill:none;fill-opacity:1;stroke:#ff00ff;stroke-width:0.422192;stroke-dasharray:none;stroke-opacity:1"
       id="path2-5-5"
       inkscape:flatsided="true"
       sodipodi:sides="6"
       sodipodi:cx="405.25177"
       sodipodi:cy="288.9021"
       sodipodi:r1="210.85258"
       sodipodi:r2="182.6037"
       sodipodi:arg1="0.52359878"
       sodipodi:arg2="1.0471976"
       inkscape:rounded="0"
       inkscape:randomized="0"
       d="M 587.85546,394.32839 405.25177,499.75468 222.64807,394.32839 222.64808,183.47581 405.25177,78.049515 587.85547,183.47581 Z"
       transform="matrix(2.3685957,0,0,2.3685868,-526.86328,-184.2897)" /><path
       sodipodi:type="star"
       style="display:inline;fill:none;fill-opacity:1;stroke:#ff00ff;stroke-width:0.426462;stroke-dasharray:none;stroke-opacity:1"
       id="path2-5-5-2"
       inkscape:flatsided="true"
       sodipodi:sides="6"
       sodipodi:cx="405.25177"
       sodipodi:cy="288.9021"
       sodipodi:r1="210.85258"
       sodipodi:r2="182.6037"
       sodipodi:arg1="0.52359878"
       sodipodi:arg2="1.0471976"
       inkscape:rounded="0"
       inkscape:randomized="0"
       d="M 587.85546,394.32839 405.25177,499.75468 222.64807,394.32839 222.64808,183.47581 405.25177,78.049515 587.85547,183.47581 Z"
       transform="matrix(2.3448824,0,0,2.3448736,-517.25343,-177.43891)" /><path
       sodipodi:type="star"
       style="display:inline;fill:none;fill-opacity:1;stroke:#ff00ff;stroke-width:0.430819;stroke-dasharray:none;stroke-opacity:1"
       id="path2-5-5-2-7"
       inkscape:flatsided="true"
       sodipodi:sides="6"
       sodipodi:cx="405.25177"
       sodipodi:cy="288.9021"
       sodipodi:r1="210.85258"
       sodipodi:r2="182.6037"
       sodipodi:arg1="0.52359878"
       sodipodi:arg2="1.0471976"
       inkscape:rounded="0"
       inkscape:randomized="0"
       d="M 587.85546,394.32839 405.25177,499.75468 222.64807,394.32839 222.64808,183.47581 405.25177,78.049515 587.85547,183.47581 Z"
       transform="matrix(2.321169,0,0,2.3211603,-507.64353,-170.58808)" /><path
       sodipodi:type="star"
       style="display:inline;fill:none;fill-opacity:1;stroke:#ff00ff;stroke-width:0.435266;stroke-dasharray:none;stroke-opacity:1"
       id="path2-5-5-2-7-6"
       inkscape:flatsided="true"
       sodipodi:sides="6"
       sodipodi:cx="405.25177"
       sodipodi:cy="288.9021"
       sodipodi:r1="210.85258"
       sodipodi:r2="182.6037"
       sodipodi:arg1="0.52359878"
       sodipodi:arg2="1.0471976"
       inkscape:rounded="0"
       inkscape:randomized="0"
       d="M 587.85546,394.32839 405.25177,499.75468 222.64807,394.32839 222.64808,183.47581 405.25177,78.049515 587.85547,183.47581 Z"
       transform="matrix(2.2974557,0,0,2.2974471,-498.03367,-163.73729)" /><path
       sodipodi:type="star"
       style="display:inline;fill:none;fill-opacity:1;stroke:#ff00ff;stroke-width:0.439805;stroke-dasharray:none;stroke-opacity:1"
       id="path2-5-5-2-7-6-6"
       inkscape:flatsided="true"
       sodipodi:sides="6"
       sodipodi:cx="405.25177"
       sodipodi:cy="288.9021"
       sodipodi:r1="210.85258"
       sodipodi:r2="182.6037"
       sodipodi:arg1="0.52359878"
       sodipodi:arg2="1.0471976"
       inkscape:rounded="0"
       inkscape:randomized="0"
       d="M 587.85546,394.32839 405.25177,499.75468 222.64807,394.32839 222.64808,183.47581 405.25177,78.049515 587.85547,183.47581 Z"
       transform="matrix(2.2737423,0,0,2.2737338,-488.42378,-156.88647)" /><path
       sodipodi:type="star"
       style="display:inline;fill:none;fill-opacity:1;stroke:#ff00ff;stroke-width:0.44444;stroke-dasharray:none;stroke-opacity:1"
       id="path2-5-5-2-7-6-6-9"
       inkscape:flatsided="true"
       sodipodi:sides="6"
       sodipodi:cx="405.25177"
       sodipodi:cy="288.9021"
       sodipodi:r1="210.85258"
       sodipodi:r2="182.6037"
       sodipodi:arg1="0.52359878"
       sodipodi:arg2="1.0471976"
       inkscape:rounded="0"
       inkscape:randomized="0"
       d="M 587.85546,394.32839 405.25177,499.75468 222.64807,394.32839 222.64808,183.47581 405.25177,78.049515 587.85547,183.47581 Z"
       transform="matrix(2.250029,0,0,2.2500206,-478.81392,-150.03568)" /><path
       sodipodi:type="star"
       style="display:inline;fill:none;fill-opacity:1;stroke:#ff00ff;stroke-width:0.449174;stroke-dasharray:none;stroke-opacity:1"
       id="path2-5-5-2-7-6-6-9-3"
       inkscape:flatsided="true"
       sodipodi:sides="6"
       sodipodi:cx="405.25177"
       sodipodi:cy="288.9021"
       sodipodi:r1="210.85258"
       sodipodi:r2="182.6037"
       sodipodi:arg1="0.52359878"
       sodipodi:arg2="1.0471976"
       inkscape:rounded="0"
       inkscape:randomized="0"
       d="M 587.85546,394.32839 405.25177,499.75468 222.64807,394.32839 222.64808,183.47581 405.25177,78.049515 587.85547,183.47581 Z"
       transform="matrix(2.2263156,0,0,2.2263073,-469.20402,-143.18485)" /><path
       sodipodi:type="star"
       style="display:inline;fill:none;fill-opacity:1;stroke:#ff00ff;stroke-width:0.45401;stroke-dasharray:none;stroke-opacity:1"
       id="path2-5-5-2-7-6-6-9-3-2"
       inkscape:flatsided="true"
       sodipodi:sides="6"
       sodipodi:cx="405.25177"
       sodipodi:cy="288.9021"
       sodipodi:r1="210.85258"
       sodipodi:r2="182.6037"
       sodipodi:arg1="0.52359878"
       sodipodi:arg2="1.0471976"
       inkscape:rounded="0"
       inkscape:randomized="0"
       d="M 587.85546,394.32839 405.25177,499.75468 222.64807,394.32839 222.64808,183.47581 405.25177,78.049515 587.85547,183.47581 Z"
       transform="matrix(2.2026023,0,0,2.2025941,-459.59417,-136.33406)" /><path
       sodipodi:type="star"
       style="display:inline;fill:none;fill-opacity:1;stroke:#ff00ff;stroke-width:0.458951;stroke-dasharray:none;stroke-opacity:1"
       id="path2-5-5-2-7-6-6-9-3-2-7"
       inkscape:flatsided="true"
       sodipodi:sides="6"
       sodipodi:cx="405.25177"
       sodipodi:cy="288.9021"
       sodipodi:r1="210.85258"
       sodipodi:r2="182.6037"
       sodipodi:arg1="0.52359878"
       sodipodi:arg2="1.0471976"
       inkscape:rounded="0"
       inkscape:randomized="0"
       d="M 587.85546,394.32839 405.25177,499.75468 222.64807,394.32839 222.64808,183.47581 405.25177,78.049515 587.85547,183.47581 Z"
       transform="matrix(2.1788889,0,0,2.1788808,-449.98427,-129.48324)" /><path
       sodipodi:type="star"
       style="display:inline;fill:none;fill-opacity:1;stroke:#ff00ff;stroke-width:0.464001;stroke-dasharray:none;stroke-opacity:1"
       id="path2-5-5-2-7-6-6-9-3-2-7-2"
       inkscape:flatsided="true"
       sodipodi:sides="6"
       sodipodi:cx="405.25177"
       sodipodi:cy="288.9021"
       sodipodi:r1="210.85258"
       sodipodi:r2="182.6037"
       sodipodi:arg1="0.52359878"
       sodipodi:arg2="1.0471976"
       inkscape:rounded="0"
       inkscape:randomized="0"
       d="M 587.85546,394.32839 405.25177,499.75468 222.64807,394.32839 222.64808,183.47581 405.25177,78.049515 587.85547,183.47581 Z"
       transform="matrix(2.1551756,0,0,2.1551676,-440.37441,-122.63245)" /><path
       sodipodi:type="star"
       style="display:inline;fill:none;fill-opacity:1;stroke:#ff00ff;stroke-width:0.469163;stroke-dasharray:none;stroke-opacity:1"
       id="path2-5-5-2-7-6-6-9-3-2-7-2-9"
       inkscape:flatsided="true"
       sodipodi:sides="6"
       sodipodi:cx="405.25177"
       sodipodi:cy="288.9021"
       sodipodi:r1="210.85258"
       sodipodi:r2="182.6037"
       sodipodi:arg1="0.52359878"
       sodipodi:arg2="1.0471976"
       inkscape:rounded="0"
       inkscape:randomized="0"
       d="M 587.85546,394.32839 405.25177,499.75468 222.64807,394.32839 222.64808,183.47581 405.25177,78.049515 587.85547,183.47581 Z"
       transform="matrix(2.1314622,0,0,2.1314543,-430.76451,-115.78162)" /><path
       sodipodi:type="star"
       style="display:inline;fill:none;fill-opacity:1;stroke:#ff00ff;stroke-width:0.474441;stroke-dasharray:none;stroke-opacity:1"
       id="path2-5-5-2-7-6-6-9-3-2-7-2-9-4"
       inkscape:flatsided="true"
       sodipodi:sides="6"
       sodipodi:cx="405.25177"
       sodipodi:cy="288.9021"
       sodipodi:r1="210.85258"
       sodipodi:r2="182.6037"
       sodipodi:arg1="0.52359878"
       sodipodi:arg2="1.0471976"
       inkscape:rounded="0"
       inkscape:randomized="0"
       d="M 587.85546,394.32839 405.25177,499.75468 222.64807,394.32839 222.64808,183.47581 405.25177,78.049515 587.85547,183.47581 Z"
       transform="matrix(2.1077489,0,0,2.1077411,-421.15466,-108.93083)" /><path
       sodipodi:type="star"
       style="display:inline;fill:none;fill-opacity:1;stroke:#ff00ff;stroke-width:0.479839;stroke-dasharray:none;stroke-opacity:1"
       id="path2-5-5-2-7-6-6-9-3-2-7-2-9-4-6"
       inkscape:flatsided="true"
       sodipodi:sides="6"
       sodipodi:cx="405.25177"
       sodipodi:cy="288.9021"
       sodipodi:r1="210.85258"
       sodipodi:r2="182.6037"
       sodipodi:arg1="0.52359878"
       sodipodi:arg2="1.0471976"
       inkscape:rounded="0"
       inkscape:randomized="0"
       d="M 587.85546,394.32839 405.25177,499.75468 222.64807,394.32839 222.64808,183.47581 405.25177,78.049515 587.85547,183.47581 Z"
       transform="matrix(2.0840355,0,0,2.0840278,-411.54476,-102.08001)" /><path
       sodipodi:type="star"
       style="display:inline;fill:none;fill-opacity:1;stroke:#ff00ff;stroke-width:0.485362;stroke-dasharray:none;stroke-opacity:1"
       id="path2-5-5-2-7-6-6-9-3-2-7-2-9-4-6-3"
       inkscape:flatsided="true"
       sodipodi:sides="6"
       sodipodi:cx="405.25177"
       sodipodi:cy="288.9021"
       sodipodi:r1="210.85258"
       sodipodi:r2="182.6037"
       sodipodi:arg1="0.52359878"
       sodipodi:arg2="1.0471976"
       inkscape:rounded="0"
       inkscape:randomized="0"
       d="M 587.85546,394.32839 405.25177,499.75468 222.64807,394.32839 222.64808,183.47581 405.25177,78.049515 587.85547,183.47581 Z"
       transform="matrix(2.0603222,0,0,2.0603146,-401.9349,-95.229214)" /><path
       sodipodi:type="star"
       style="display:inline;fill:none;fill-opacity:1;stroke:#ff00ff;stroke-width:0.491013;stroke-dasharray:none;stroke-opacity:1"
       id="path2-5-5-2-7-6-6-9-3-2-7-2-9-4-6-3-1"
       inkscape:flatsided="true"
       sodipodi:sides="6"
       sodipodi:cx="405.25177"
       sodipodi:cy="288.9021"
       sodipodi:r1="210.85258"
       sodipodi:r2="182.6037"
       sodipodi:arg1="0.52359878"
       sodipodi:arg2="1.0471976"
       inkscape:rounded="0"
       inkscape:randomized="0"
       d="M 587.85546,394.32839 405.25177,499.75468 222.64807,394.32839 222.64808,183.47581 405.25177,78.049515 587.85547,183.47581 Z"
       transform="matrix(2.0366088,0,0,2.0366013,-392.32501,-88.378392)" /><path
       sodipodi:type="star"
       style="display:inline;fill:none;fill-opacity:1;stroke:#ff00ff;stroke-width:0.496797;stroke-dasharray:none;stroke-opacity:1"
       id="path2-5-5-2-7-6-6-9-3-2-7-2-9-4-6-3-1-7"
       inkscape:flatsided="true"
       sodipodi:sides="6"
       sodipodi:cx="405.25177"
       sodipodi:cy="288.9021"
       sodipodi:r1="210.85258"
       sodipodi:r2="182.6037"
       sodipodi:arg1="0.52359878"
       sodipodi:arg2="1.0471976"
       inkscape:rounded="0"
       inkscape:randomized="0"
       d="M 587.85546,394.32839 405.25177,499.75468 222.64807,394.32839 222.64808,183.47581 405.25177,78.049515 587.85547,183.47581 Z"
       transform="matrix(2.0128955,0,0,2.0128881,-382.71515,-81.527599)" /><path
       sodipodi:type="star"
       style="display:inline;fill:none;fill-opacity:1;stroke:#ff00ff;stroke-width:0.502719;stroke-dasharray:none;stroke-opacity:1"
       id="path2-5-5-2-7-6-6-9-3-2-7-2-9-4-6-3-1-7-9"
       inkscape:flatsided="true"
       sodipodi:sides="6"
       sodipodi:cx="405.25177"
       sodipodi:cy="288.9021"
       sodipodi:r1="210.85258"
       sodipodi:r2="182.6037"
       sodipodi:arg1="0.52359878"
       sodipodi:arg2="1.0471976"
       inkscape:rounded="0"
       inkscape:randomized="0"
       d="M 587.85546,394.32839 405.25177,499.75468 222.64807,394.32839 222.64808,183.47581 405.25177,78.049515 587.85547,183.47581 Z"
       transform="matrix(1.9891821,0,0,1.9891748,-373.10525,-74.676777)" /><path
       sodipodi:type="star"
       style="display:inline;fill:none;fill-opacity:1;stroke:#ff00ff;stroke-width:0.508784;stroke-dasharray:none;stroke-opacity:1"
       id="path2-5-5-2-7-6-6-9-3-2-7-2-9-4-6-3-1-7-9-5"
       inkscape:flatsided="true"
       sodipodi:sides="6"
       sodipodi:cx="405.25177"
       sodipodi:cy="288.9021"
       sodipodi:r1="210.85258"
       sodipodi:r2="182.6037"
       sodipodi:arg1="0.52359878"
       sodipodi:arg2="1.0471976"
       inkscape:rounded="0"
       inkscape:randomized="0"
       d="M 587.85546,394.32839 405.25177,499.75468 222.64807,394.32839 222.64808,183.47581 405.25177,78.049515 587.85547,183.47581 Z"
       transform="matrix(1.9654688,0,0,1.9654616,-363.49539,-67.825983)" /><path
       sodipodi:type="star"
       style="display:inline;fill:none;fill-opacity:1;stroke:#ff00ff;stroke-width:0.514997;stroke-dasharray:none;stroke-opacity:1"
       id="path2-5-5-2-7-6-6-9-3-2-7-2-9-4-6-3-1-7-9-5-7"
       inkscape:flatsided="true"
       sodipodi:sides="6"
       sodipodi:cx="405.25177"
       sodipodi:cy="288.9021"
       sodipodi:r1="210.85258"
       sodipodi:r2="182.6037"
       sodipodi:arg1="0.52359878"
       sodipodi:arg2="1.0471976"
       inkscape:rounded="0"
       inkscape:randomized="0"
       d="M 587.85546,394.32839 405.25177,499.75468 222.64807,394.32839 222.64808,183.47581 405.25177,78.049515 587.85547,183.47581 Z"
       transform="matrix(1.9417554,0,0,1.9417483,-353.8855,-60.975161)" /><path
       sodipodi:type="star"
       style="display:inline;fill:none;fill-opacity:1;stroke:#ff00ff;stroke-width:0.521364;stroke-dasharray:none;stroke-opacity:1"
       id="path2-5-5-2-7-6-6-9-3-2-7-2-9-4-6-3-1-7-9-5-7-0"
       inkscape:flatsided="true"
       sodipodi:sides="6"
       sodipodi:cx="405.25177"
       sodipodi:cy="288.9021"
       sodipodi:r1="210.85258"
       sodipodi:r2="182.6037"
       sodipodi:arg1="0.52359878"
       sodipodi:arg2="1.0471976"
       inkscape:rounded="0"
       inkscape:randomized="0"
       d="M 587.85546,394.32839 405.25177,499.75468 222.64807,394.32839 222.64808,183.47581 405.25177,78.049515 587.85547,183.47581 Z"
       transform="matrix(1.9180421,0,0,1.9180351,-344.27564,-54.124368)" /><path
       sodipodi:type="star"
       style="display:inline;fill:none;fill-opacity:1;stroke:#ff00ff;stroke-width:0.52789;stroke-dasharray:none;stroke-opacity:1"
       id="path2-5-5-2-7-6-6-9-3-2-7-2-9-4-6-3-1-7-9-5-7-0-8"
       inkscape:flatsided="true"
       sodipodi:sides="6"
       sodipodi:cx="405.25177"
       sodipodi:cy="288.9021"
       sodipodi:r1="210.85258"
       sodipodi:r2="182.6037"
       sodipodi:arg1="0.52359878"
       sodipodi:arg2="1.0471976"
       inkscape:rounded="0"
       inkscape:randomized="0"
       d="M 587.85546,394.32839 405.25177,499.75468 222.64807,394.32839 222.64808,183.47581 405.25177,78.049515 587.85547,183.47581 Z"
       transform="matrix(1.8943287,0,0,1.8943218,-334.66574,-47.273546)" /><path
       sodipodi:type="star"
       style="display:inline;fill:none;fill-opacity:1;stroke:#ff00ff;stroke-width:0.534582;stroke-dasharray:none;stroke-opacity:1"
       id="path2-5-5-2-7-6-6-9-3-2-7-2-9-4-6-3-1-7-9-5-7-0-8-1"
       inkscape:flatsided="true"
       sodipodi:sides="6"
       sodipodi:cx="405.25177"
       sodipodi:cy="288.9021"
       sodipodi:r1="210.85258"
       sodipodi:r2="182.6037"
       sodipodi:arg1="0.52359878"
       sodipodi:arg2="1.0471976"
       inkscape:rounded="0"
       inkscape:randomized="0"
       d="M 587.85546,394.32839 405.25177,499.75468 222.64807,394.32839 222.64808,183.47581 405.25177,78.049515 587.85547,183.47581 Z"
       transform="matrix(1.8706154,0,0,1.8706086,-325.05589,-40.422752)" /><path
       sodipodi:type="star"
       style="display:inline;fill:none;fill-opacity:1;stroke:#ff00ff;stroke-width:0.541446;stroke-dasharray:none;stroke-opacity:1"
       id="path2-5-5-2-7-6-6-9-3-2-7-2-9-4-6-3-1-7-9-5-7-0-8-1-0"
       inkscape:flatsided="true"
       sodipodi:sides="6"
       sodipodi:cx="405.25177"
       sodipodi:cy="288.9021"
       sodipodi:r1="210.85258"
       sodipodi:r2="182.6037"
       sodipodi:arg1="0.52359878"
       sodipodi:arg2="1.0471976"
       inkscape:rounded="0"
       inkscape:randomized="0"
       d="M 587.85546,394.32839 405.25177,499.75468 222.64807,394.32839 222.64808,183.47581 405.25177,78.049515 587.85547,183.47581 Z"
       transform="matrix(1.846902,0,0,1.8468953,-315.44599,-33.57193)" /><path
       sodipodi:type="star"
       style="display:inline;fill:none;fill-opacity:1;stroke:#ff00ff;stroke-width:0.548488;stroke-dasharray:none;stroke-opacity:1"
       id="path2-5-5-2-7-6-6-9-3-2-7-2-9-4-6-3-1-7-9-5-7-0-8-1-0-2"
       inkscape:flatsided="true"
       sodipodi:sides="6"
       sodipodi:cx="405.25177"
       sodipodi:cy="288.9021"
       sodipodi:r1="210.85258"
       sodipodi:r2="182.6037"
       sodipodi:arg1="0.52359878"
       sodipodi:arg2="1.0471976"
       inkscape:rounded="0"
       inkscape:randomized="0"
       d="M 587.85546,394.32839 405.25177,499.75468 222.64807,394.32839 222.64808,183.47581 405.25177,78.049515 587.85547,183.47581 Z"
       transform="matrix(1.8231887,0,0,1.8231821,-305.83613,-26.721137)" /><path
       sodipodi:type="star"
       style="display:inline;fill:none;fill-opacity:1;stroke:#ff00ff;stroke-width:0.555716;stroke-dasharray:none;stroke-opacity:1"
       id="path2-5-5-2-7-6-6-9-3-2-7-2-9-4-6-3-1-7-9-5-7-0-8-1-0-2-9"
       inkscape:flatsided="true"
       sodipodi:sides="6"
       sodipodi:cx="405.25177"
       sodipodi:cy="288.9021"
       sodipodi:r1="210.85258"
       sodipodi:r2="182.6037"
       sodipodi:arg1="0.52359878"
       sodipodi:arg2="1.0471976"
       inkscape:rounded="0"
       inkscape:randomized="0"
       d="M 587.85546,394.32839 405.25177,499.75468 222.64807,394.32839 222.64808,183.47581 405.25177,78.049515 587.85547,183.47581 Z"
       transform="matrix(1.7994753,0,0,1.7994688,-296.22624,-19.870315)" /><path
       sodipodi:type="star"
       style="display:inline;fill:none;fill-opacity:1;stroke:#ff00ff;stroke-width:0.563137;stroke-dasharray:none;stroke-opacity:1"
       id="path2-5-5-2-7-6-6-9-3-2-7-2-9-4-6-3-1-7-9-5-7-0-8-1-0-2-9-8"
       inkscape:flatsided="true"
       sodipodi:sides="6"
       sodipodi:cx="405.25177"
       sodipodi:cy="288.9021"
       sodipodi:r1="210.85258"
       sodipodi:r2="182.6037"
       sodipodi:arg1="0.52359878"
       sodipodi:arg2="1.0471976"
       inkscape:rounded="0"
       inkscape:randomized="0"
       d="M 587.85546,394.32839 405.25177,499.75468 222.64807,394.32839 222.64808,183.47581 405.25177,78.049515 587.85547,183.47581 Z"
       transform="matrix(1.775762,0,0,1.7757556,-286.61638,-13.019522)" /><path
       sodipodi:type="star"
       style="display:inline;fill:none;fill-opacity:1;stroke:#ff00ff;stroke-width:0.570759;stroke-dasharray:none;stroke-opacity:1"
       id="path2-5-5-2-7-6-6-9-3-2-7-2-9-4-6-3-1-7-9-5-7-0-8-1-0-2-9-8-6"
       inkscape:flatsided="true"
       sodipodi:sides="6"
       sodipodi:cx="405.25177"
       sodipodi:cy="288.9021"
       sodipodi:r1="210.85258"
       sodipodi:r2="182.6037"
       sodipodi:arg1="0.52359878"
       sodipodi:arg2="1.0471976"
       inkscape:rounded="0"
       inkscape:randomized="0"
       d="M 587.85546,394.32839 405.25177,499.75468 222.64807,394.32839 222.64808,183.47581 405.25177,78.049515 587.85547,183.47581 Z"
       transform="matrix(1.7520486,0,0,1.7520423,-277.00648,-6.1686994)" /><path
       sodipodi:type="star"
       style="display:inline;fill:none;fill-opacity:1;stroke:#ff00ff;stroke-width:0.57859;stroke-dasharray:none;stroke-opacity:1"
       id="path2-5-5-2-7-6-6-9-3-2-7-2-9-4-6-3-1-7-9-5-7-0-8-1-0-2-9-8-6-1"
       inkscape:flatsided="true"
       sodipodi:sides="6"
       sodipodi:cx="405.25177"
       sodipodi:cy="288.9021"
       sodipodi:r1="210.85258"
       sodipodi:r2="182.6037"
       sodipodi:arg1="0.52359878"
       sodipodi:arg2="1.0471976"
       inkscape:rounded="0"
       inkscape:randomized="0"
       d="M 587.85546,394.32839 405.25177,499.75468 222.64807,394.32839 222.64808,183.47581 405.25177,78.049515 587.85547,183.47581 Z"
       transform="matrix(1.7283353,0,0,1.7283291,-267.39662,0.68209382)" /><path
       sodipodi:type="star"
       style="display:inline;fill:none;fill-opacity:1;stroke:#ff00ff;stroke-width:0.586639;stroke-dasharray:none;stroke-opacity:1"
       id="path2-5-5-2-7-6-6-9-3-2-7-2-9-4-6-3-1-7-9-5-7-0-8-1-0-2-9-8-6-1-9"
       inkscape:flatsided="true"
       sodipodi:sides="6"
       sodipodi:cx="405.25177"
       sodipodi:cy="288.9021"
       sodipodi:r1="210.85258"
       sodipodi:r2="182.6037"
       sodipodi:arg1="0.52359878"
       sodipodi:arg2="1.0471976"
       inkscape:rounded="0"
       inkscape:randomized="0"
       d="M 587.85546,394.32839 405.25177,499.75468 222.64807,394.32839 222.64808,183.47581 405.25177,78.049515 587.85547,183.47581 Z"
       transform="matrix(1.7046219,0,0,1.7046158,-257.78673,7.532916)" /><path
       sodipodi:type="star"
       style="display:inline;fill:none;fill-opacity:1;stroke:#ff00ff;stroke-width:0.594915;stroke-dasharray:none;stroke-opacity:1"
       id="path2-5-5-2-7-6-6-9-3-2-7-2-9-4-6-3-1-7-9-5-7-0-8-1-0-2-9-8-6-1-9-7"
       inkscape:flatsided="true"
       sodipodi:sides="6"
       sodipodi:cx="405.25177"
       sodipodi:cy="288.9021"
       sodipodi:r1="210.85258"
       sodipodi:r2="182.6037"
       sodipodi:arg1="0.52359878"
       sodipodi:arg2="1.0471976"
       inkscape:rounded="0"
       inkscape:randomized="0"
       d="M 587.85546,394.32839 405.25177,499.75468 222.64807,394.32839 222.64808,183.47581 405.25177,78.049515 587.85547,183.47581 Z"
       transform="matrix(1.6809086,0,0,1.6809026,-248.17687,14.383709)" /><path
       sodipodi:type="star"
       style="display:inline;fill:none;fill-opacity:1;stroke:#ff00ff;stroke-width:0.603428;stroke-dasharray:none;stroke-opacity:1"
       id="path2-5-5-2-7-6-6-9-3-2-7-2-9-4-6-3-1-7-9-5-7-0-8-1-0-2-9-8-6-1-9-7-5"
       inkscape:flatsided="true"
       sodipodi:sides="6"
       sodipodi:cx="405.25177"
       sodipodi:cy="288.9021"
       sodipodi:r1="210.85258"
       sodipodi:r2="182.6037"
       sodipodi:arg1="0.52359878"
       sodipodi:arg2="1.0471976"
       inkscape:rounded="0"
       inkscape:randomized="0"
       d="M 587.85546,394.32839 405.25177,499.75468 222.64807,394.32839 222.64808,183.47581 405.25177,78.049515 587.85547,183.47581 Z"
       transform="matrix(1.6571952,0,0,1.6571893,-238.56697,21.234531)" /></g></svg>
